<svg width="122" height="124" viewBox="0 0 122 124" fill="none" xmlns="http://www.w3.org/2000/svg">
<path d="M61.9148 0.622887C60.4166 1.40031 59.6102 2.78378 59.6102 4.62717C59.6102 6.06734 59.5523 6.18327 58.8328 6.35589C50.9679 8.0846 44.8014 13.8756 42.9001 21.3373C41.8921 25.1979 41.9488 25.4285 46.6171 48.9376C49.0086 60.9807 50.9389 70.8339 50.9099 70.8628C50.852 70.8918 50.3908 71.1514 49.9019 71.4109C49.3841 71.6705 48.9519 72.0447 48.9519 72.2753C48.9519 72.996 52.9562 78.6711 55.0024 80.8899C59.958 86.1907 66.8729 90.0514 74.0183 91.5495C75.2002 91.8091 76.6694 92.0976 77.2742 92.1833C78.2544 92.3269 78.3401 92.4429 78.3401 93.2782C78.3401 94.6617 77.3321 98.5513 76.3518 100.942C74.9684 104.312 72.9234 107.453 70.2144 110.334C66.2391 114.539 61.6287 117.363 56.0104 119.006C52.7835 119.928 46.762 120.274 43.2756 119.698C36.8219 118.69 31.3484 115.895 26.5365 111.227C22.5322 107.337 19.7665 102.67 18.2104 97.0519L17.433 94.1993L17.3183 76.7105L17.2314 59.223L18.47 58.9054C24.4046 57.3783 28.5827 53.1435 29.8213 47.4382C30.3114 45.0177 30.3114 43.9807 29.8213 41.5603C29.2165 38.8236 28.0926 36.6337 26.1912 34.6164C21.5242 29.6319 14.8399 28.4223 8.64574 31.4185C6.1963 32.6004 3.34492 35.5967 2.10508 38.2755C-1.75556 46.6885 3.05638 56.7723 11.8726 58.7605L13.3707 59.0781L13.5144 76.5089C13.658 91.5772 13.745 94.1993 14.1771 96.0717C15.8769 103.419 18.6716 108.518 23.8577 113.675C28.0926 117.853 31.9822 120.33 37.1104 122.001C57.3069 128.599 78.4548 115.72 81.882 94.7751L82.2562 92.4706L84.9072 92.269C96.7197 91.3467 107.524 84.5477 113.604 74.1754C114.18 73.1964 114.641 72.303 114.641 72.1581C114.641 72.0132 114.209 71.668 113.718 71.4097C113.201 71.1501 112.739 70.9195 112.71 70.8906C112.652 70.8326 114.583 61.0953 116.974 49.2249C121.67 25.8304 121.728 25.3983 120.72 21.394C118.905 14.3065 113.172 8.57349 105.911 6.61419L103.981 6.09506V4.62591C103.981 2.14875 102.368 0.275131 100.235 0.275131C98.9676 0.275131 97.8147 0.99585 97.0662 2.23443C96.5471 3.04083 96.4904 3.70358 96.4904 7.62218C96.4904 11.5408 96.5484 12.2035 97.0662 13.0099C97.8147 14.2775 98.8806 14.9113 100.235 14.9113C102.338 14.9113 103.981 13.1246 103.981 10.849C103.981 9.66716 104.01 9.63944 104.788 9.81207C111.241 11.3682 116.342 16.7269 117.666 23.3533L118.127 25.6868L113.949 46.8334C111.644 58.4733 109.685 68.2685 109.598 68.6427C109.455 69.2185 109.368 69.2475 108.82 68.9602C108.387 68.7297 108.157 68.7297 108.071 68.9313C107.812 69.7377 105.68 72.9355 104.239 74.6932C100.955 78.6975 94.962 82.5871 89.8918 83.9416C82.6594 85.9324 75.398 85.2407 68.686 81.9559C63.7884 79.5354 59.5245 75.6458 56.6719 70.9788C56.0961 69.9985 55.548 69.0774 55.519 68.9325C55.4321 68.7019 55.2027 68.7309 54.7983 68.9615C54.2792 69.2211 54.1355 69.1921 54.0209 68.7599C53.9339 68.5003 51.9759 58.7341 49.6701 47.0942L45.4352 25.9476L45.8964 23.5272C47.106 16.9008 52.2921 11.3694 58.8328 9.81333C59.5825 9.64071 59.6102 9.66969 59.6102 10.8503C59.6102 13.1259 61.252 14.9125 63.3562 14.9125C64.7107 14.9125 65.7767 14.2788 66.5251 13.0112C67.043 12.2048 67.1009 11.542 67.1009 7.62344C67.1009 3.70484 67.043 3.04208 66.5251 2.23569C65.4302 0.421288 63.5578 -0.212494 61.9148 0.622887ZM18.2948 37.7324C19.706 38.3082 21.3201 39.9223 22.0408 41.4784C23.3953 44.331 22.6456 47.8741 20.2831 49.9494C18.756 51.2749 17.4305 51.765 15.3855 51.765C12.5618 51.765 10.4589 50.5554 8.96074 47.9913C8.29798 46.8674 8.18332 46.3495 8.18332 44.4759C8.18332 42.5456 8.29798 42.1424 9.04768 40.9038C11.1216 37.5585 14.8374 36.291 18.2948 37.7324Z" fill="#FFB800"/>
</svg>
